<svg width="60" height="60" viewBox="0 0 60 60" fill="none" xmlns="http://www.w3.org/2000/svg">
<g clip-path="url(#clip0_156_23)">
<path d="M17.1109 2.11091C18.1424 1.07946 19.5413 0.5 21 0.5H48C49.4587 0.5 50.8576 1.07946 51.8891 2.11091C52.9205 3.14236 53.5 4.54131 53.5 6V42C53.5 43.4587 52.9205 44.8576 51.8891 45.8891C50.9762 46.802 49.7753 47.3609 48.5 47.4772V12C48.5 10.2761 47.8152 8.62279 46.5962 7.40381C45.3772 6.18482 43.7239 5.5 42 5.5H15.5228C15.6391 4.22467 16.198 3.02384 17.1109 2.11091Z" stroke="#7B7B7B"/>
<path d="M27 14.5H26.5V15V30V30.5H27H39H39.5V30V15V14.5H39H27ZM12 14.5H11.5V15V18V18.5H12H24H24.5V18V15V14.5H24H12ZM12 20.5H11.5V21V24V24.5H12H24H24.5V24V21V20.5H24H12ZM12 26.5H11.5V27V30V30.5H12H24H24.5V30V27V26.5H24H12ZM12 32.5H11.5V33V36V36.5H12H39H39.5V36V33V32.5H39H12ZM12 38.5H11.5V39V42V42.5H12H39H39.5V42V39V38.5H39H12ZM12 44.5H11.5V45V48V48.5H12H39H39.5V48V45V44.5H39H12ZM42.8891 57.8891C41.8576 58.9205 40.4587 59.5 39 59.5H12C10.5413 59.5 9.14236 58.9205 8.11091 57.8891C7.07946 56.8576 6.5 55.4587 6.5 54V15C6.5 13.5413 7.07946 12.1424 8.11091 11.1109C9.14236 10.0795 10.5413 9.5 12 9.5H39C40.4587 9.5 41.8576 10.0795 42.8891 11.1109C43.9205 12.1424 44.5 13.5413 44.5 15V54C44.5 55.4587 43.9205 56.8576 42.8891 57.8891Z" stroke="#7B7B7B"/>
</g>
<defs>
<clipPath id="clip0_156_23">
<rect width="60" height="60" fill="white"/>
</clipPath>
</defs>
</svg>
