<svg width="594" height="510" viewBox="0 0 594 510" fill="none" xmlns="http://www.w3.org/2000/svg">
<path d="M535.982 350.411C521.901 344.051 519.76 328.747 513.944 320.789C508.128 312.83 494.048 307.933 494.048 307.933C494.048 307.933 507.516 297.526 528.943 299.974C539.015 301.125 546.584 305.659 552.764 310.586C549.585 301.366 552.812 296.051 547.308 287.282C540.88 277.041 528.331 271.507 521.289 254.498C514.249 237.49 521.289 222.226 521.289 222.226C521.289 222.226 523.433 228.347 532.004 234.47C539.665 239.942 561.26 240.781 574.065 257.291C567.447 164.126 502.676 113.21 457.859 86.6514C419.363 63.8394 394.508 16.2301 290.503 23.1141C186.497 30.0141 163.341 96.7368 137.572 147.246C123.307 175.207 91.0532 181.394 63.8506 200.633C83.9852 195.365 96.7532 205.081 111.921 208.146C130.1 211.819 132.956 199.001 149.281 199.083C165.607 199.166 171.729 204.881 171.729 204.881C171.729 204.881 155.403 202.431 150.097 216.307C144.792 230.185 138.261 235.397 121.937 233.198C105.612 231.001 100.885 232.187 92.2292 239.961C83.5732 247.734 63.5745 242.021 52.1479 244.878C45.3759 246.569 36.1719 258.575 29.7932 268.081C34.9479 263.91 42.0026 259.302 51.5079 255.061C78.0372 243.225 111.921 264.875 111.921 264.875C111.921 264.875 85.2052 270.997 69.6972 281.607C54.1879 292.219 43.1679 282.017 32.5572 285.69C27.2412 287.53 22.9519 289.394 19.9919 290.797C19.9892 290.838 19.9852 290.879 19.9826 290.921C17.8546 323.917 30.3239 353.215 51.5079 378.327C103.375 439.807 207.481 476.233 277.56 480.59C350.853 485.131 479.485 457.906 540.567 376.77C545.972 369.593 550.841 361.986 555.102 353.949C548.993 353.915 541.964 353.111 535.982 350.411Z" fill="#922790"/>
<path d="M271.208 158.863C271.208 180.115 253.98 197.343 232.726 197.343C211.474 197.343 194.245 180.115 194.245 158.863C194.245 137.611 211.474 120.381 232.726 120.381C253.98 120.381 271.208 137.611 271.208 158.863Z" fill="#EA63AA"/>
<path d="M511.857 120.381C511.857 128.097 505.603 134.351 497.885 134.351C490.171 134.351 483.916 128.097 483.916 120.381C483.916 112.665 490.171 106.41 497.885 106.41C505.603 106.41 511.857 112.665 511.857 120.381Z" fill="#EA63AA"/>
<path d="M540.566 376.769C479.485 457.907 350.854 485.131 277.561 480.589C207.481 476.233 103.375 439.807 51.5085 378.327C71.2632 356.428 121.774 312.075 214.981 299.605C340.283 282.835 427.619 382.327 522.311 377.071C528.682 376.712 534.766 376.628 540.566 376.769Z" fill="#EA63AA"/>
<path d="M134.385 118.154C146.017 83.2589 118.467 99.3776 108.061 121.622C97.6528 143.866 78.0635 146.311 78.0635 158.863C78.0635 171.414 122.753 153.048 134.385 118.154Z" stroke="#EA63AA" stroke-width="1.33333" stroke-miterlimit="10"/>
<path d="M453.337 74.369C453.337 74.369 420.89 46.833 407.729 37.9557C394.566 29.0797 400.382 17.1423 430.533 30.9157C460.683 44.6903 473.539 71.2877 469.559 76.8143C465.581 82.341 453.337 74.369 453.337 74.369Z" stroke="#EA63AA" stroke-width="1.33333" stroke-miterlimit="10"/>
<path d="M152.238 156.771C152.238 157.926 151.302 158.862 150.148 158.862C148.993 158.862 148.057 157.926 148.057 156.771C148.057 155.617 148.993 154.681 150.148 154.681C151.302 154.681 152.238 155.617 152.238 156.771Z" fill="#EA63AA"/>
<path d="M169.788 160.723C169.788 161.878 168.852 162.814 167.697 162.814C166.542 162.814 165.606 161.878 165.606 160.723C165.606 159.569 166.542 158.633 167.697 158.633C168.852 158.633 169.788 159.569 169.788 160.723Z" fill="#EA63AA"/>
<path d="M228.438 98.2681C228.438 99.4228 227.502 100.359 226.348 100.359C225.193 100.359 224.257 99.4228 224.257 98.2681C224.257 97.1134 225.193 96.1774 226.348 96.1774C227.502 96.1774 228.438 97.1134 228.438 98.2681Z" fill="#EA63AA"/>
<path d="M502.068 283.64C502.068 284.795 501.132 285.73 499.978 285.73C498.822 285.73 497.886 284.795 497.886 283.64C497.886 282.486 498.822 281.55 499.978 281.55C501.132 281.55 502.068 282.486 502.068 283.64Z" fill="#EA63AA"/>
<path d="M509.188 277.978C509.188 279.133 508.252 280.067 507.098 280.067C505.942 280.067 505.006 279.133 505.006 277.978C505.006 276.823 505.942 275.887 507.098 275.887C508.252 275.887 509.188 276.823 509.188 277.978Z" fill="#EA63AA"/>
<path d="M165.607 149.988C165.607 151.848 164.099 153.354 162.24 153.354C160.38 153.354 158.872 151.848 158.872 149.988C158.872 148.128 160.38 146.621 162.24 146.621C164.099 146.621 165.607 148.128 165.607 149.988Z" fill="#EA63AA"/>
<path d="M520.779 172.802C520.779 174.662 519.273 176.169 517.414 176.169C515.553 176.169 514.046 174.662 514.046 172.802C514.046 170.942 515.553 169.435 517.414 169.435C519.273 169.435 520.779 170.942 520.779 172.802Z" fill="#EA63AA"/>
<path d="M158.872 274.049C158.872 276.46 156.919 278.412 154.51 278.412C152.1 278.412 150.148 276.46 150.148 274.049C150.148 271.64 152.1 269.688 154.51 269.688C156.919 269.688 158.872 271.64 158.872 274.049Z" stroke="white" stroke-width="1.33333" stroke-miterlimit="10"/>
<path d="M405.453 88.0064C405.453 90.4157 403.499 92.3677 401.091 92.3677C398.682 92.3677 396.729 90.4157 396.729 88.0064C396.729 85.597 398.682 83.6437 401.091 83.6437C403.499 83.6437 405.453 85.597 405.453 88.0064Z" stroke="white" stroke-width="1.33333" stroke-miterlimit="10"/>
<path d="M200.953 74.0475C200.953 81.7288 194.727 87.9568 187.044 87.9568C179.361 87.9568 173.133 81.7288 173.133 74.0475C173.133 66.3648 179.361 60.1368 187.044 60.1368C194.727 60.1368 200.953 66.3648 200.953 74.0475Z" stroke="white" stroke-width="1.33333" stroke-miterlimit="10"/>
<path d="M592.429 193.945C592.429 209.686 579.668 222.446 563.928 222.446C548.185 222.446 535.425 209.686 535.425 193.945C535.425 178.203 548.185 165.443 563.928 165.443C579.668 165.443 592.429 178.203 592.429 193.945Z" stroke="white" stroke-width="1.33333" stroke-miterlimit="10"/>
<path d="M58.0027 332.625C58.0027 348.366 45.2427 361.126 29.5013 361.126C13.76 361.126 1 348.366 1 332.625C1 316.884 13.76 304.124 29.5013 304.124C45.2427 304.124 58.0027 316.884 58.0027 332.625Z" stroke="white" stroke-width="1.33333" stroke-miterlimit="10"/>
<path d="M245.577 42.5859C245.577 42.5859 239.573 45.7019 239.289 58.8499C239.006 71.9979 251.602 78.0899 259.544 77.9485L258.848 75.8979C258.848 75.8979 245.321 74.4059 241.809 62.9285C238.297 51.4512 245.949 43.6579 245.949 43.6579L245.577 42.5859Z" fill="#42211F"/>
<path d="M464.286 272.021C464.286 272.021 461.536 292.803 425.087 300.738C388.635 308.673 351.038 287.89 351.038 287.89L357.173 287.282C357.173 287.282 378.431 299.603 403.937 298.094C429.442 296.582 443.886 281.09 443.886 281.09L464.286 272.021Z" fill="#42211F"/>
<path d="M469.872 169.435C469.872 169.435 465.526 156.777 448.901 143.741C432.276 130.705 419.052 123.527 419.052 123.527C470.817 139.773 471.384 169.435 471.384 169.435H469.872ZM473.273 171.513C475.54 145.82 440.021 119.369 397.702 112.56C355.384 105.749 358.44 60.6135 358.44 60.6135L273.892 109.263C273.892 109.263 269.989 149.599 241.809 172.268C213.628 194.94 208.777 248.595 222.002 269.753C235.228 290.913 258.653 292.425 295.117 290.157C331.578 287.891 348.481 289.784 389.012 293.181C429.544 296.577 458.444 305.789 483.058 260.875C507.672 215.961 473.273 171.513 473.273 171.513Z" fill="#42211F"/>
<path d="M244.75 148.617C244.75 148.617 232.771 159.422 224.27 182.093C215.769 204.765 197.821 275.044 197.821 275.044L226.834 293.135L254.875 216.478L244.75 148.617Z" fill="#DE6E5C"/>
<path d="M360.352 257.608C355.939 270.665 357.024 284.949 363.395 297.177L364.952 303.905V303.919L369.223 322.303C339.997 347.672 299.401 356.229 274.432 350.715C249.448 345.2 243.092 324.76 243.092 324.76L246.948 297.748L240.335 237.653C240.335 237.653 235.163 229.753 232.964 211.569C230.749 193.371 244.748 148.617 244.748 148.617L290.231 130.433L323.399 127.605L378.723 148.617L385.88 166.545C385.621 176.459 378.323 201.956 370.695 226.053C367.081 237.496 363.395 248.624 360.352 257.608Z" fill="#FFDCC6"/>
<path d="M323.713 130.561C318.517 140.028 299.964 151.912 292.47 149.313C284.978 146.714 291.05 133.349 291.05 133.349C291.12 131.453 291.189 129.702 291.241 128.092C291.588 117.404 291.518 112.892 291.518 112.892L323.713 91.5838C322.961 95.4732 322.588 99.9158 322.458 104.385C322.068 117.386 323.713 130.561 323.713 130.561Z" fill="#DE6E5C"/>
<path d="M323.713 91.5839C322.961 95.4732 322.588 99.9159 322.458 104.385C318.768 109.92 312.618 118.219 306.226 122.765C299.626 127.469 294.221 128.179 291.241 128.092C291.588 117.404 291.518 112.891 291.518 112.891L323.713 91.5839Z" fill="#C85346"/>
<path d="M256.527 80.2643C256.527 80.2643 257.641 106.62 276.202 118.499C294.762 130.378 320.747 105.507 325.202 91.7723C329.657 78.0376 328.171 48.3403 328.171 48.3403C328.171 48.3403 303.671 32.0069 285.11 32.0069C266.55 32.0069 256.527 41.2869 256.527 41.2869V80.2643Z" fill="#DE6E5C"/>
<path d="M277.682 32.526C277.682 32.526 277.13 42.2153 294.948 53.5366C312.766 64.8593 322.428 67.1793 322.428 67.1793L326.202 87.994C326.202 87.994 323.61 94.526 322.883 96.8993C322.092 99.4926 322.402 107.733 322.402 107.733C322.402 107.733 337.452 105.502 342.65 91.5833C342.65 91.5833 358.054 80.0793 358.611 59.2913C359.167 38.502 348.403 32.006 348.403 32.006C348.403 32.006 345.632 7.13531 318.155 2.86597C290.679 -1.40202 268.778 14.002 268.778 14.002C268.778 14.002 255.414 12.1473 248.175 21.6126C240.936 31.0793 245.576 42.586 245.576 42.586C245.576 42.586 239.266 48.7113 242.979 58.734C246.691 68.7566 256.527 70.0553 256.527 70.0553C256.527 70.0553 257.456 52.9806 262.467 44.442C267.479 35.9046 277.682 32.526 277.682 32.526Z" fill="#42211F"/>
<path d="M323.717 70.2414C323.717 70.2414 327.245 61.5188 334.482 60.5895C341.721 59.6615 342.278 72.4681 337.266 81.0068C332.254 89.5441 325.202 87.8748 325.202 87.8748L323.717 70.2414Z" fill="#DE6E5C"/>
<path d="M320.191 60.5422C320.191 60.5422 325.016 75.0676 322.232 86.5742C322.232 86.5742 323.013 85.8022 324.037 84.3116C326.367 80.9182 327.336 68.0142 328.38 63.5916L320.191 60.5422Z" fill="#42211F"/>
<path d="M268.406 15.302C268.406 15.302 274.469 6.51664 285.977 2.92864C297.485 -0.660694 307.136 2.92864 307.136 2.92864L308.993 2.80464C308.993 2.80464 298.228 -2.36469 286.101 1.33264C273.974 5.03131 265.561 14.5593 265.561 14.5593L268.406 15.302Z" fill="#42211F"/>
<path d="M348.403 32.0064C348.403 32.0064 354.818 33.2437 358.632 40.1731C362.447 47.1024 358.508 54.1371 358.508 54.1371L357.87 53.2891C357.87 53.2891 360.938 47.3184 357.126 40.7917C353.315 34.2651 348.403 34.6051 348.403 34.6051V32.0064Z" fill="#42211F"/>
<path d="M258.848 65.6419C258.848 65.6419 259.617 63.8845 265.106 63.9939C270.598 64.1045 273.892 67.1792 273.892 67.1792C273.892 67.1792 271.366 62.4565 266.37 61.7979C261.374 61.1392 258.958 64.8725 258.848 65.6419Z" fill="#42211F"/>
<path d="M277.682 32.526C277.682 32.526 276.82 42.0287 282.388 49.7007C287.958 57.3727 304.414 57.3727 304.414 57.3727L305.074 58.8487C305.074 58.8487 288.823 58.9807 282.266 53.166C275.707 47.35 274.964 37.6233 276.202 32.526H277.682Z" fill="#42211F"/>
<path d="M288.728 66.2487C288.728 66.2487 289.616 64.2207 295.957 64.3473C302.299 64.4727 306.103 68.0247 306.103 68.0247C306.103 68.0247 303.185 62.5713 297.416 61.81C291.645 61.05 288.855 65.3607 288.728 66.2487Z" fill="#42211F"/>
<path d="M273.892 91.2148C273.892 91.2148 274.727 92.0494 277.883 92.9774C281.037 93.9068 283.265 92.9774 283.265 92.9774C283.265 92.9774 282.312 91.2148 279.865 90.8441C277.419 90.4721 273.892 91.2148 273.892 91.2148Z" fill="#A73B34"/>
<path d="M273.892 67.1789C273.892 67.1789 275.645 69.0349 276.295 73.8603C276.945 78.6869 276.295 82.4909 276.295 82.4909C276.295 82.4909 274.088 69.8709 273.892 67.1789Z" fill="#C85346"/>
<path d="M259.544 72.5611C259.544 72.5611 262.236 73.7211 265.622 74.0931C269.01 74.4638 273.185 73.3971 273.185 73.3971C273.185 73.3971 271.63 69.2185 268.036 68.2465C262.374 66.7145 259.544 72.5611 259.544 72.5611Z" fill="#C85346"/>
<path d="M288.728 73.2448C288.728 73.2448 289.287 68.9634 294.763 68.0248C300.237 67.0861 306.733 72.8394 306.733 72.8394C306.733 72.8394 295.967 77.9781 288.728 73.2448Z" fill="#C85346"/>
<path d="M266.52 74.0475C262.869 73.9861 259.544 72.5608 259.544 72.5608L258.848 73.0248C258.394 73.3275 257.378 73.4595 257.378 73.4595C258.36 73.8861 259.377 73.8621 259.998 73.7848C261.262 74.5075 263.5 75.4915 266.365 75.5315C270.912 75.5928 273.186 74.0155 273.186 74.0155V73.3968C273.186 73.3968 270.17 74.1075 266.52 74.0475Z" fill="#42211F"/>
<path d="M306.734 72.8397C306.734 72.8397 302.328 74.1797 297.764 74.3051C293.2 74.4291 288.982 73.0864 288.982 73.0864L288.132 73.6157C287.579 73.9611 286.315 74.1517 286.315 74.1517C287.56 74.5557 288.83 74.4771 289.603 74.3637C291.215 75.0664 294.054 75.9971 297.636 75.8891C303.32 75.7197 305.074 74.3691 306.31 73.5584C306.484 73.4437 306.734 72.8397 306.734 72.8397Z" fill="#42211F"/>
<path d="M273.892 99.6288C273.892 99.6288 274.831 100.062 278.579 100.805C282.327 101.546 291.241 99.6288 291.241 99.6288C291.241 99.6288 284.663 98.5155 282.567 98.6395C280.471 98.7635 279.048 99.8021 279.048 99.8021C279.048 99.8021 277.131 98.2675 275.955 98.2675C274.779 98.2675 272.613 98.9488 272.613 98.9488L273.892 99.6288Z" fill="#A73B34"/>
<path d="M275.238 103.598C275.238 103.598 277.79 105.33 281.502 105.454C285.214 105.576 289.236 104.031 289.236 104.031C289.236 104.031 287 107.238 282.236 107.734C277.472 108.228 275.238 103.598 275.238 103.598Z" fill="#C85346"/>
<path d="M229.668 341.122L245.645 306.922C245.645 306.922 256.268 318.118 288.728 319.253C321.188 320.386 364.953 303.921 364.953 303.921C364.953 303.921 376.165 332.856 376.165 343.624C376.165 354.393 312.119 396.901 312.119 396.901L274.145 394.066L229.668 341.122Z" fill="#843D3A"/>
<path d="M227.848 396.901C227.848 396.901 217.356 400.985 213.763 402.66C213.763 402.66 198.087 404.264 191.795 406.12C185.503 407.976 183.914 416.41 182.371 425.521C180.827 434.63 169.091 446.853 165.45 453.193C161.808 459.534 163.547 467.07 164.05 468.63C164.552 470.19 162.476 475.51 165.088 478.804C167.699 482.096 169.219 480.4 170.68 479.585C172.139 478.77 172.583 475.872 172.583 475.872C172.583 475.872 176.635 475.082 178.151 473.905C179.667 472.728 178.111 472.712 181.856 471.505C185.602 470.298 187.53 469.333 189.619 467.798C191.71 466.264 203.53 445.748 211.062 439.186C218.594 432.625 232.155 430.324 232.155 430.324L227.848 396.901Z" fill="#DE6E5C"/>
<path d="M433.217 433.739C407.628 440.193 352.057 444.729 302.252 447.678C250.94 450.719 205.752 452.069 205.752 452.069L198.148 427.934L191.402 406.537L340.552 376.965C340.552 376.965 336.492 346.086 368.984 329.449C368.984 329.449 465.71 330.215 489.144 357.419C512.566 384.622 487.253 420.145 433.217 433.739Z" fill="#843D3A"/>
<path d="M287.614 425.255C287.614 425.255 298.106 429.339 301.699 431.013C301.699 431.013 317.374 432.618 323.667 434.474C329.961 436.33 331.547 444.765 333.091 453.875C334.635 462.985 346.371 475.207 350.014 481.547C353.654 487.889 351.917 495.425 351.414 496.985C350.911 498.545 352.986 503.864 350.374 507.158C347.763 510.45 346.243 508.754 344.783 507.939C343.322 507.125 342.878 504.226 342.878 504.226C342.878 504.226 338.826 503.436 337.31 502.259C335.797 501.082 337.351 501.066 333.606 499.859C329.861 498.653 327.933 497.687 325.843 496.153C323.753 494.618 311.933 474.102 304.401 467.541C296.869 460.979 283.307 458.678 283.307 458.678L287.614 425.255Z" fill="#DE6E5C"/>
<path d="M237.872 335.122C237.872 335.122 110.348 335.122 89.9439 357.793C69.5399 380.465 80.8759 409.37 97.3119 419.005C113.749 428.641 286.048 467.181 286.048 467.181L295.117 414.472L269.697 406.537L283.308 388.312L237.872 335.122Z" fill="#843D3A"/>
<path d="M237.494 340.034C237.494 340.034 264.106 372.98 278.573 382.768C278.573 382.768 248.83 379.708 237.494 340.034Z" fill="#6B2C2C"/>
<path d="M134.719 368.562C134.719 368.562 156.823 371.396 191.397 378.764C225.97 386.132 269.697 406.536 269.697 406.536C269.697 406.536 224.838 375.929 189.698 368.562C154.555 361.194 134.719 368.562 134.719 368.562Z" fill="#6B2C2C"/>
<path d="M258.033 399.099C258.033 399.099 360.863 368.41 403.937 361.402C403.937 361.402 312.857 388.778 269.697 406.536L258.033 399.099Z" fill="#6B2C2C"/>
<path d="M357.172 337.327C357.172 337.327 307.322 361.933 290.544 386.88C290.544 386.88 343.092 359.935 357.172 337.327Z" fill="#6B2C2C"/>
<path d="M94.0359 338.048C88.4213 340.029 81.9799 338.048 81.1546 337.057C80.3293 336.068 86.6039 330.288 86.6039 325.828C86.6039 325.131 86.5159 324.591 86.3719 324.161C87.2946 325.127 88.5919 326.097 89.8946 326.653C93.3746 328.14 100.972 328.956 102.953 330.117C104.935 331.279 99.6506 336.068 94.0359 338.048ZM226.835 293.135C226.835 293.135 218.368 272.536 198.513 272.351L119.676 325.836C118.156 325.048 115.491 323.952 111.375 323.187C104.275 321.865 90.2373 322.029 86.6039 321.369C84.8519 321.051 84.7546 321.925 85.5039 323.081C84.3466 322.601 82.5026 323.893 81.0799 325.993C78.8426 329.297 73.2293 335.451 73.2293 338.897C73.2293 342.343 79.3386 345.809 82.9719 345.975C82.9719 345.975 70.5866 349.113 68.2746 353.572C65.9626 358.029 72.0719 357.369 74.0546 356.379C76.0359 355.388 88.7519 351.92 88.7519 351.92C88.7519 351.92 76.2013 358.856 75.8706 363.645C75.5399 368.435 79.8346 365.628 83.7973 363.645C87.7599 361.664 94.8613 358.029 94.8613 358.029C94.8613 358.029 84.6226 365.463 86.4399 368.764C88.2559 372.068 96.6773 364.525 103.449 361.444C110.22 358.36 115.337 357.908 121.051 355.687C129.044 352.58 133.263 345.892 133.263 345.892C147.351 340.648 207.719 317.176 226.835 293.135Z" fill="#DE6E5C"/>
<path d="M486.497 225.357C486.497 225.357 493.677 247.279 488.764 263.618C483.853 279.955 465.054 283.641 465.054 283.641L468.078 279.862C468.078 279.862 486.592 276.745 487.632 251.334C488.554 228.761 486.497 225.357 486.497 225.357Z" fill="#42211F"/>
<path d="M104.012 329.855C104.012 329.855 110.246 333.398 117.188 333.398C124.132 333.398 115.772 336.515 110.6 334.957C105.428 333.398 104.012 329.855 104.012 329.855Z" fill="#C85346"/>
<path d="M125.887 342.187C125.887 342.187 121.636 342.327 115.685 345.445C109.733 348.562 106.616 356.497 105.057 355.222C103.499 353.947 107.749 341.762 125.887 342.187Z" fill="#C85346"/>
<path d="M84.8276 345.76C84.8276 345.76 97.853 356.292 99.4116 356.435C100.969 356.576 94.037 346.328 84.8276 345.76Z" fill="#C85346"/>
<path d="M245.037 232.738C245.037 232.738 251.465 229.371 271.055 229.371C290.645 229.371 323.253 237.023 323.253 237.023C323.253 237.023 263.097 237.328 245.037 232.738Z" fill="#FCCAB7"/>
<path d="M363.412 297.535L364.968 304.264V304.279L337.2 312.848C337.2 312.848 351.328 278.708 351.055 252.582C350.784 226.456 359.312 193.944 359.312 193.944L370.712 226.414C367.098 237.855 363.412 248.983 360.37 257.967C355.955 271.023 357.042 285.308 363.412 297.535Z" fill="#FCCAB7"/>
<path d="M484.447 358.598C479.299 355.606 474.998 349.916 477.161 349.146C479.325 348.374 486.939 348.986 490.638 348.174C492.021 347.868 493.475 347.155 494.561 346.379C494.339 346.774 494.151 347.29 494.023 347.972C493.194 352.354 498.283 359.2 497.287 360.02C496.293 360.84 489.595 361.588 484.447 358.598ZM506.871 378.642C505.429 373.832 493.845 368.444 493.845 368.444C497.445 368.959 504.093 366.687 504.734 363.302C505.374 359.916 501.003 352.824 499.419 349.163C498.413 346.835 496.841 345.223 495.615 345.479C496.566 344.483 496.633 343.606 494.853 343.592C491.159 343.566 477.399 340.792 470.175 340.768C467.263 340.759 465.019 341.039 463.363 341.375L410.549 267.11C407.63 248.959 403.599 203.014 398.837 182.66C392.602 156.022 378.718 148.616 378.718 148.616C378.718 148.616 361.502 158.855 358.633 178.692C355.761 198.53 381.043 287.283 381.043 287.283C390.022 312.532 437.303 352.883 443.886 360.422C443.886 360.422 447.346 366.363 454.623 370.903C459.823 374.146 464.767 375.544 470.847 379.832C476.925 384.122 483.798 393.098 486.197 390.19C488.595 387.284 479.919 378.076 479.919 378.076C479.919 378.076 486.219 382.967 489.746 385.652C493.27 388.336 496.967 391.894 497.533 387.126C498.099 382.359 487.059 373.21 487.059 373.21C487.059 373.21 498.907 378.983 500.67 380.326C502.433 381.668 508.313 383.454 506.871 378.642Z" fill="#DE6E5C"/>
<path d="M475.492 349.858C475.492 349.858 469.258 353.401 462.314 353.401C455.372 353.401 463.732 356.518 468.904 354.959C474.076 353.401 475.492 349.858 475.492 349.858Z" fill="#C85346"/>
<path d="M449.112 359.182C449.112 359.182 453.362 359.324 459.313 362.441C465.264 365.558 468.381 373.493 469.94 372.218C471.498 370.942 467.249 358.758 449.112 359.182Z" fill="#C85346"/>
<path d="M488.575 366.389C488.575 366.389 475.55 376.921 473.991 377.064C472.434 377.205 479.366 366.956 488.575 366.389Z" fill="#C85346"/>
<path d="M285.596 138.662C285.596 138.662 279.407 150.446 289.235 153.661C299.064 156.874 315.899 145.702 324.471 137.438C324.471 137.438 313.146 155.65 294.779 158.558C276.414 161.466 280.672 142.67 285.596 138.662Z" fill="#FCCAB7"/>
</svg>
