<svg width="55" height="60" viewBox="0 0 55 60" fill="none" xmlns="http://www.w3.org/2000/svg">
<path d="M47.3086 20.9598L47.323 21.0697L47.3825 21.1633L54.1324 31.7801C54.1324 31.7801 54.1324 31.7802 54.1325 31.7803C54.2893 32.0273 54.3443 32.3251 54.2828 32.5842C54.2252 32.8269 54.0574 33.0746 53.6816 33.2368C53.6815 33.2368 53.6814 33.2369 53.6813 33.2369L47.8058 35.7503L47.5024 35.8801V36.21V45C47.5024 46.4587 46.923 47.8576 45.8915 48.8891C44.8601 49.9205 43.4611 50.5 42.0024 50.5H36.0054H35.5056L35.5054 50.9998L35.5026 59.5H9.50242V48.918C9.50242 45.2471 8.14409 41.7885 5.65736 38.69C2.88955 35.234 1.15442 31.0664 0.651869 26.6672C0.149304 22.2679 0.899872 17.8162 2.8171 13.8248C4.73432 9.83351 7.74018 6.46506 11.4883 4.10759C15.2365 1.75011 19.5745 0.499556 24.0024 0.5C29.7087 0.500372 35.22 2.57648 39.5083 6.34106C43.7967 10.1056 46.5691 15.3016 47.3086 20.9598ZM22.766 16.9354L22.766 16.9354L22.7598 16.9294C21.6756 15.8818 20.2233 15.3019 18.7156 15.3147C17.208 15.3275 15.7657 15.932 14.6994 16.9978C13.6331 18.0637 13.028 19.5058 13.0146 21.0134C13.0012 22.521 13.5805 23.9736 14.6277 25.0583L14.6277 25.0583L14.6338 25.0645L23.6488 34.0825L24.0024 34.4362L24.356 34.0825L33.368 25.0675C33.9156 24.5376 34.3524 23.9041 34.653 23.2039C34.9543 22.5023 35.1127 21.7478 35.1192 20.9843C35.1257 20.2208 34.98 19.4637 34.6908 18.7571C34.4015 18.0505 33.9744 17.4086 33.4345 16.8688C32.8945 16.329 32.2524 15.9022 31.5457 15.6132C30.839 15.3242 30.0818 15.1789 29.3183 15.1857C28.5548 15.1925 27.8003 15.3513 27.0989 15.6528C26.3988 15.9537 25.7655 16.3907 25.2358 16.9385L24.0024 18.1719L22.766 16.9354Z" stroke="#7B7B7B"/>
</svg>
