<svg width="50" height="60" viewBox="0 0 50 60" fill="none" xmlns="http://www.w3.org/2000/svg">
<path d="M18.3763 42.9098L13.6926 33.621L13.554 33.3462H13.2462H0.534668C1.00543 27.217 3.48384 22.0438 7.97988 17.8038C12.6036 13.4455 18.1275 11.2692 24.5785 11.2692C27.4999 11.2692 30.3234 11.7914 33.052 12.8362L33.0525 12.8364C35.7832 13.8787 38.2911 15.3558 40.5775 17.2696L40.9284 17.5633L41.252 17.2397L44.2585 14.2333L45.7298 15.7046L42.7234 18.7111L42.4007 19.0337L42.6926 19.3844C44.4199 21.4604 45.8098 23.7278 46.8635 26.1876L46.8635 26.1878C47.844 28.475 48.4304 30.8603 48.6228 33.3462H38.152L31.1775 19.7108L30.7331 18.8421L30.2875 19.7101L18.3763 42.9098ZM18.8692 50.9981L30.7826 27.8534L35.5238 37.1502L35.663 37.4231H35.9692H48.622C48.1508 43.514 45.6748 48.6776 41.1822 52.9356L41.182 52.9358C36.5688 57.3138 31.0434 59.5 24.5785 59.5C18.1282 59.5 12.6046 57.314 7.98072 52.9354C3.4842 48.6774 1.00624 43.5139 0.534914 37.4231H11.0055L17.9799 50.9977L18.4242 51.8625L18.8692 50.9981ZM17.0323 2.57692V0.5H32.1246V2.57692H17.0323Z" stroke="#7B7B7B"/>
</svg>
