<svg width="282" height="207" viewBox="0 0 282 207" fill="none" xmlns="http://www.w3.org/2000/svg">
<path d="M178.5 127.5C239.5 97.5 285.5 143.5 243 179C268.5 143 243 115 178.5 127.5Z" fill="#EA63AA"/>
<path d="M131.501 135.5C73 147 51 178.5 89.5012 206.5C40.5 189.5 64.5 131.5 131.501 135.5Z" fill="#EA63AA"/>
<path d="M282 30.5C226 21 176 59.5 171.5 120.5C186.5 71 218 41.5 270.5 40.5C268.5 71 259 95.1657 232.5 110C262 103.5 280 74 282 30.5Z" fill="#922790"/>
<path d="M15 88C27.5 116 46.7614 135 75 138C39 143 11.5 115 0.5 82.5C51.5 53 109.5 74.5 135.5 125.5C97 81 58.5 71 15 88Z" fill="#922790"/>
<path d="M213.501 -6.10352e-05C144.5 51.5 182 115.5 148.501 171.5C146.501 129 136 83.9999 71.001 46.9999C95.5 39.5 124.5 51.5 146.501 85.4999C151 43.5 169.5 -6.10352e-05 213.501 -6.10352e-05Z" fill="url(#paint0_linear_235_11)"/>
<path d="M135.499 55C161.499 50.5 150.999 13.5 132.999 15.5C109 18.1666 116 55 135.499 55Z" fill="#922790"/>
<defs>
<linearGradient id="paint0_linear_235_11" x1="145.5" y1="51" x2="147" y2="171" gradientUnits="userSpaceOnUse">
<stop stop-color="#EC88B8"/>
<stop offset="1" stop-color="#9D3494"/>
</linearGradient>
</defs>
</svg>
