<svg width="145" height="25" viewBox="0 0 145 25" fill="none" xmlns="http://www.w3.org/2000/svg">
<path d="M24.3754 10.9723L19.3453 15.3622L20.8521 21.898C20.9318 22.2397 20.9091 22.5973 20.7867 22.9261C20.6643 23.2549 20.4477 23.5403 20.1639 23.7467C19.8802 23.9531 19.5419 24.0712 19.1914 24.0864C18.8409 24.1016 18.4937 24.0131 18.1932 23.832L12.4928 20.3745L6.80461 23.832C6.50411 24.0131 6.15689 24.1016 5.80636 24.0864C5.45584 24.0712 5.11756 23.9531 4.83383 23.7467C4.55009 23.5403 4.33348 23.2549 4.21109 22.9261C4.08869 22.5973 4.06594 22.2397 4.14568 21.898L5.65025 15.3689L0.619029 10.9723C0.352922 10.7428 0.1605 10.4398 0.0658912 10.1014C-0.0287174 9.76299 -0.0213005 9.40415 0.0872117 9.06992C0.195724 8.73569 0.400501 8.44094 0.675864 8.22262C0.951226 8.00431 1.28492 7.87215 1.63509 7.84272L8.26679 7.26833L10.8555 1.09391C10.9906 0.769925 11.2187 0.493182 11.5108 0.298525C11.8029 0.103868 12.1462 0 12.4972 0C12.8483 0 13.1915 0.103868 13.4836 0.298525C13.7758 0.493182 14.0038 0.769925 14.139 1.09391L16.7354 7.26833L23.3649 7.84272C23.7151 7.87215 24.0488 8.00431 24.3241 8.22262C24.5995 8.44094 24.8043 8.73569 24.9128 9.06992C25.0213 9.40415 25.0287 9.76299 24.9341 10.1014C24.8395 10.4398 24.6471 10.7428 24.381 10.9723H24.3754Z" fill="url(#paint0_linear_177_284)"/>
<path d="M54.3754 10.9723L49.3453 15.3622L50.8521 21.898C50.9318 22.2397 50.9091 22.5973 50.7867 22.9261C50.6643 23.2549 50.4477 23.5403 50.1639 23.7467C49.8802 23.9531 49.5419 24.0712 49.1914 24.0864C48.8409 24.1016 48.4937 24.0131 48.1932 23.832L42.4928 20.3745L36.8046 23.832C36.5041 24.0131 36.1569 24.1016 35.8064 24.0864C35.4558 24.0712 35.1176 23.9531 34.8338 23.7467C34.5501 23.5403 34.3335 23.2549 34.2111 22.9261C34.0887 22.5973 34.0659 22.2397 34.1457 21.898L35.6502 15.3689L30.619 10.9723C30.3529 10.7428 30.1605 10.4398 30.0659 10.1014C29.9713 9.76299 29.9787 9.40415 30.0872 9.06992C30.1957 8.73569 30.4005 8.44094 30.6759 8.22262C30.9512 8.00431 31.2849 7.87215 31.6351 7.84272L38.2668 7.26833L40.8555 1.09391C40.9906 0.769925 41.2187 0.493182 41.5108 0.298525C41.8029 0.103868 42.1462 0 42.4972 0C42.8483 0 43.1915 0.103868 43.4836 0.298525C43.7758 0.493182 44.0038 0.769925 44.139 1.09391L46.7354 7.26833L53.3649 7.84272C53.7151 7.87215 54.0488 8.00431 54.3241 8.22262C54.5995 8.44094 54.8043 8.73569 54.9128 9.06992C55.0213 9.40415 55.0287 9.76299 54.9341 10.1014C54.8395 10.4398 54.6471 10.7428 54.381 10.9723H54.3754Z" fill="url(#paint1_linear_177_284)"/>
<path d="M84.3754 10.9723L79.3453 15.3622L80.8521 21.898C80.9318 22.2397 80.9091 22.5973 80.7867 22.9261C80.6643 23.2549 80.4477 23.5403 80.1639 23.7467C79.8802 23.9531 79.5419 24.0712 79.1914 24.0864C78.8409 24.1016 78.4937 24.0131 78.1932 23.832L72.4928 20.3745L66.8046 23.832C66.5041 24.0131 66.1569 24.1016 65.8064 24.0864C65.4558 24.0712 65.1176 23.9531 64.8338 23.7467C64.5501 23.5403 64.3335 23.2549 64.2111 22.9261C64.0887 22.5973 64.0659 22.2397 64.1457 21.898L65.6502 15.3689L60.619 10.9723C60.3529 10.7428 60.1605 10.4398 60.0659 10.1014C59.9713 9.76299 59.9787 9.40415 60.0872 9.06992C60.1957 8.73569 60.4005 8.44094 60.6759 8.22262C60.9512 8.00431 61.2849 7.87215 61.6351 7.84272L68.2668 7.26833L70.8555 1.09391C70.9906 0.769925 71.2187 0.493182 71.5108 0.298525C71.8029 0.103868 72.1462 0 72.4972 0C72.8483 0 73.1915 0.103868 73.4836 0.298525C73.7758 0.493182 74.0038 0.769925 74.139 1.09391L76.7354 7.26833L83.3649 7.84272C83.7151 7.87215 84.0488 8.00431 84.3241 8.22262C84.5995 8.44094 84.8043 8.73569 84.9128 9.06992C85.0213 9.40415 85.0287 9.76299 84.9341 10.1014C84.8395 10.4398 84.6471 10.7428 84.381 10.9723H84.3754Z" fill="url(#paint2_linear_177_284)"/>
<path d="M114.375 10.9723L109.345 15.3622L110.852 21.898C110.932 22.2397 110.909 22.5973 110.787 22.9261C110.664 23.2549 110.448 23.5403 110.164 23.7467C109.88 23.9531 109.542 24.0712 109.191 24.0864C108.841 24.1016 108.494 24.0131 108.193 23.832L102.493 20.3745L96.8046 23.832C96.5041 24.0131 96.1569 24.1016 95.8064 24.0864C95.4558 24.0712 95.1176 23.9531 94.8338 23.7467C94.5501 23.5403 94.3335 23.2549 94.2111 22.9261C94.0887 22.5973 94.0659 22.2397 94.1457 21.898L95.6502 15.3689L90.619 10.9723C90.3529 10.7428 90.1605 10.4398 90.0659 10.1014C89.9713 9.76299 89.9787 9.40415 90.0872 9.06992C90.1957 8.73569 90.4005 8.44094 90.6759 8.22262C90.9512 8.00431 91.2849 7.87215 91.6351 7.84272L98.2668 7.26833L100.855 1.09391C100.991 0.769925 101.219 0.493182 101.511 0.298525C101.803 0.103868 102.146 0 102.497 0C102.848 0 103.191 0.103868 103.484 0.298525C103.776 0.493182 104.004 0.769925 104.139 1.09391L106.735 7.26833L113.365 7.84272C113.715 7.87215 114.049 8.00431 114.324 8.22262C114.599 8.44094 114.804 8.73569 114.913 9.06992C115.021 9.40415 115.029 9.76299 114.934 10.1014C114.84 10.4398 114.647 10.7428 114.381 10.9723H114.375Z" fill="url(#paint3_linear_177_284)"/>
<path d="M144.375 10.9723L139.345 15.3622L140.852 21.898C140.932 22.2397 140.909 22.5973 140.787 22.9261C140.664 23.2549 140.448 23.5403 140.164 23.7467C139.88 23.9531 139.542 24.0712 139.191 24.0864C138.841 24.1016 138.494 24.0131 138.193 23.832L132.493 20.3745L126.805 23.832C126.504 24.0131 126.157 24.1016 125.806 24.0864C125.456 24.0712 125.118 23.9531 124.834 23.7467C124.55 23.5403 124.333 23.2549 124.211 22.9261C124.089 22.5973 124.066 22.2397 124.146 21.898L125.65 15.3689L120.619 10.9723C120.353 10.7428 120.16 10.4398 120.066 10.1014C119.971 9.76299 119.979 9.40415 120.087 9.06992C120.196 8.73569 120.401 8.44094 120.676 8.22262C120.951 8.00431 121.285 7.87215 121.635 7.84272L128.267 7.26833L130.855 1.09391C130.991 0.769925 131.219 0.493182 131.511 0.298525C131.803 0.103868 132.146 0 132.497 0C132.848 0 133.191 0.103868 133.484 0.298525C133.776 0.493182 134.004 0.769925 134.139 1.09391L136.735 7.26833L143.365 7.84272C143.715 7.87215 144.049 8.00431 144.324 8.22262C144.599 8.44094 144.804 8.73569 144.913 9.06992C145.021 9.40415 145.029 9.76299 144.934 10.1014C144.84 10.4398 144.647 10.7428 144.381 10.9723H144.375Z" fill="url(#paint4_linear_177_284)"/>
<defs>
<linearGradient id="paint0_linear_177_284" x1="3.16173e-10" y1="12.044" x2="147" y2="12" gradientUnits="userSpaceOnUse">
<stop stop-color="#EC88B8"/>
<stop offset="1" stop-color="#922790"/>
</linearGradient>
<linearGradient id="paint1_linear_177_284" x1="1.5" y1="12" x2="143" y2="12" gradientUnits="userSpaceOnUse">
<stop stop-color="#EC88B8"/>
<stop offset="1" stop-color="#922790"/>
</linearGradient>
<linearGradient id="paint2_linear_177_284" x1="-2.5" y1="12" x2="137" y2="12" gradientUnits="userSpaceOnUse">
<stop stop-color="#EC88B8"/>
<stop offset="1" stop-color="#922790"/>
</linearGradient>
<linearGradient id="paint3_linear_177_284" x1="-1" y1="12" x2="140" y2="12" gradientUnits="userSpaceOnUse">
<stop stop-color="#EC88B8"/>
<stop offset="1" stop-color="#922790"/>
</linearGradient>
<linearGradient id="paint4_linear_177_284" x1="1.50001" y1="12" x2="145" y2="12.044" gradientUnits="userSpaceOnUse">
<stop stop-color="#EC88B8"/>
<stop offset="1" stop-color="#922790"/>
</linearGradient>
</defs>
</svg>
