<svg width="71" height="107" viewBox="0 0 71 107" fill="none" xmlns="http://www.w3.org/2000/svg">
<path d="M37.5 69.4999L46 62.9999C50.3747 61.2435 52.1825 61.2829 55.5 66.9999L44.5 76.4999C49.3223 96.7158 34.5599 102.438 0 106.5C8.01863 71.7247 15.5875 61.8785 37.5 69.4999Z" fill="#E6E7E7"/>
<path d="M46.0002 65.5V53.5H52V68.0294C49.9269 68.427 47.7863 67.5839 46.0002 65.5Z" fill="#4D343C"/>
<path d="M56 53.5V65.5C54.7861 66.9161 53.4085 67.7593 51.9998 68.0294V53.5H56Z" fill="#614040"/>
<path d="M46.0001 53.5C23.2394 40.368 35.1065 25.3326 51.5001 0C64.8993 28.4572 71.2604 43.8519 46.0001 53.5Z" fill="#297F66"/>
<path d="M45.9998 53.5C66.8741 55.9841 85.4939 42.6871 51.4998 0C64.899 28.4572 71.2601 43.8519 45.9998 53.5Z" fill="#4B956A"/>
</svg>
